<svg width="29" height="30" viewBox="0 0 29 30" fill="none" xmlns="http://www.w3.org/2000/svg">
<path d="M28.2734 1.00408L27.5708 0.478504L26.1823 1.96493L25.0691 0.356895L24.4286 0.650937L25.3098 2.89882L24.9018 3.33563L21.7391 0L21.0222 0.35519L23.8348 6.40026L21.1994 7.32679H21.1366L19.7079 5.62777L18.2781 7.32824H9.99518L8.56532 5.62777L7.13256 7.33174H7.08834L4.43845 6.40015L7.25121 0.35519L6.53433 0L3.37147 3.33554L2.96345 2.89874L3.84473 0.650855L3.20435 0.35681L2.09111 1.96484L0.702573 0.478504L0 1.00408L2.16164 4.6115L1.04918 5.78469L1.43812 8.75396L4.01458 9.73798L4.00948 11.0219H1.56972V11.576L2.51412 12.9232L4.00948 13.4645V22.179L7.83157 27.8674L8.70753 30L10.0841 27.9925L11.5108 30L12.76 27.9925L14.1366 30L15.5132 27.9925L16.7624 30L18.1891 27.9925L19.5656 30L20.4416 27.8674L24.2637 22.179V13.4645L25.759 12.9232L26.7034 11.576V11.0219H24.2637L24.2674 9.73466L26.8351 8.75402L27.224 5.78477L26.1115 4.61158L28.2734 1.00408ZM17.1118 24.401H9.17816L10.1699 22.3822L11.1616 24.401L12.1532 23.048L13.1449 24.401L14.1366 23.0479L15.1283 24.401L16.12 23.048L17.1118 24.401L18.1034 22.3822L19.0951 24.401H17.1118ZM21.9686 15.1632L17.8433 16.5192L17.6656 20.3456L14.1322 21.1286L10.5989 20.3456L10.4212 16.5192L6.29582 15.1632V13.1206L11.6289 14.6318L11.5639 19.7906H16.7005L16.6355 14.6318L21.9686 13.1206L21.9686 15.1632Z" fill="#88FFE4"/>
</svg>
